<svg version="1.1" id="Layer_1" xmlns="http://www.w3.org/2000/svg" xmlns:xlink="http://www.w3.org/1999/xlink" x="0px" y="0px"
	 width="100%" viewBox="0 0 3378 1282" enable-background="new 0 0 3378 1282" xml:space="preserve">
<path fill="#FEFFFF" opacity="1.000000" stroke="none" 
	d="
M2336.000000,1284.000000 
	C1558.206177,1284.000000 780.412354,1284.000000 2.000000,1284.000000 
	C2.000000,1015.944275 2.000000,747.888000 2.535158,478.945160 
	C3.772544,478.143585 4.474772,478.228638 5.388058,479.175537 
	C7.124545,491.866241 8.014637,503.818329 10.279820,515.503784 
	C23.710663,584.790222 52.930370,645.852173 104.571480,695.165283 
	C137.160385,726.285034 175.196671,748.169617 218.048843,761.416138 
	C259.825836,774.330261 302.653442,777.200928 346.088593,772.369934 
	C384.882568,768.055115 421.285034,756.361328 455.409882,737.565063 
	C498.500397,713.830505 533.298218,680.862976 560.345764,640.063232 
	C596.325378,585.789978 612.629517,525.044373 615.527161,460.551575 
	C617.050415,426.648621 614.836304,392.845612 607.979126,359.474640 
	C593.813049,290.534332 563.593384,230.400253 511.038757,182.485962 
	C458.850433,134.905655 396.784607,110.976624 326.932159,106.492432 
	C305.403778,105.110413 283.789856,106.276276 262.374207,109.803452 
	C188.544174,121.963318 127.219582,156.160706 79.482994,213.941437 
	C34.468342,268.427490 10.711732,331.482819 4.659246,401.669678 
	C3.412389,401.773743 2.706193,401.886871 1.999999,402.000000 
	C2.000000,268.696838 2.000000,135.393692 2.000000,2.000000 
	C1093.389404,2.000000 2184.778809,2.000000 3277.111084,2.475449 
	C3278.053955,2.950899 3277.943604,3.896901 3277.058350,4.084523 
	C3251.727295,6.061605 3227.223877,7.285133 3202.849365,9.773175 
	C3166.284180,13.505579 3129.687988,17.285316 3093.324463,22.559937 
	C3035.603027,30.932581 2978.306396,41.841980 2921.248291,54.015785 
	C2831.342773,73.197952 2742.364014,96.022514 2653.971924,121.197998 
	C2629.088867,128.285095 2604.256592,135.551117 2578.766602,142.446014 
	C2569.769287,138.145554 2561.556885,133.778046 2553.019531,130.182053 
	C2505.984375,110.370651 2457.061768,103.219582 2406.171875,107.507980 
	C2367.950928,110.728798 2331.870850,121.023178 2297.709717,137.977570 
	C2247.339844,162.976440 2208.120850,200.450134 2178.399414,247.871857 
	C2171.250977,259.277496 2165.999756,271.872345 2159.935547,283.955017 
	C2159.995117,283.989716 2159.934326,283.866089 2159.443359,283.895569 
	C2158.476807,284.441162 2158.280518,285.047638 2157.669922,286.045532 
	C2142.789795,291.735413 2128.620850,297.170380 2114.413086,302.501801 
	C2094.973145,309.796600 2075.503906,317.012604 2055.883301,323.318420 
	C2055.259766,304.115021 2054.662109,285.857849 2054.366455,267.595795 
	C2053.618408,221.374207 2053.011475,175.150330 2052.324219,128.927734 
	C2052.291260,126.707542 2052.034668,124.490677 2051.839844,121.655251 
	C2041.944824,121.655251 2032.652954,122.067314 2023.420288,121.507294 
	C2017.475708,121.146721 2014.365479,123.476921 2011.685425,128.448425 
	C2007.466675,136.274292 2002.546631,143.722061 1997.980713,151.235641 
	C1996.173096,150.570160 1995.194336,150.364349 1994.374878,149.885803 
	C1955.424438,127.139038 1913.989746,112.536674 1868.598755,109.336548 
	C1840.612183,107.363457 1812.800659,107.640366 1785.321533,112.835258 
	C1721.998047,124.806534 1668.140381,154.174805 1624.446167,201.962418 
	C1591.307373,238.205978 1569.045532,280.457672 1554.369507,326.914795 
	C1543.921021,359.989655 1538.772339,394.113220 1537.875610,428.706482 
	C1537.368896,448.256287 1538.298584,467.912323 1539.815796,487.424561 
	C1541.122803,504.233215 1544.178467,520.905945 1545.836426,538.036621 
	C1543.165771,539.519653 1541.169556,540.714417 1539.065918,541.673767 
	C1509.573486,555.123474 1480.045288,568.494812 1450.569336,581.980530 
	C1425.004395,593.676941 1399.494507,605.493896 1373.855835,616.234680 
	C1373.728271,478.937683 1373.705078,342.663544 1373.682739,206.389435 
	C1373.682495,205.056717 1373.552856,203.705948 1373.720825,202.393982 
	C1376.272339,182.467682 1382.492310,170.090958 1404.127930,164.145798 
	C1410.203125,162.476410 1416.348267,160.941666 1422.553833,159.891464 
	C1434.552368,157.860901 1446.616577,156.218842 1458.926270,154.374893 
	C1458.926270,143.576050 1458.926270,132.847992 1458.926270,122.335632 
	C1389.011353,122.335632 1319.850464,122.335632 1252.109741,122.335632 
	C1245.685547,145.360825 1240.727417,167.802902 1233.122681,189.309143 
	C1221.282959,222.792435 1207.635498,255.636169 1194.772583,288.758118 
	C1180.951660,324.346802 1167.228638,359.973724 1153.312988,395.525330 
	C1145.695679,414.985809 1137.769043,434.325256 1129.399658,453.407867 
	C1117.978271,438.004456 1107.187500,422.877716 1096.292236,407.826447 
	C1043.942993,335.507782 991.593506,263.189178 939.178711,190.917969 
	C925.755188,172.409134 912.093750,154.072800 898.449463,134.880615 
	C896.915649,130.067963 895.473938,126.031906 894.137207,122.289673 
	C821.348328,122.289673 749.202393,122.289673 676.506592,122.289673 
	C676.445801,133.681717 675.752991,144.440231 676.927307,155.479080 
	C693.599121,155.598190 708.476196,158.766418 722.954529,163.866486 
	C748.674133,172.926361 765.803467,190.331528 772.080322,217.019211 
	C774.714661,228.219803 776.118469,239.974289 776.148193,251.481964 
	C776.440247,364.449738 776.446716,477.418884 776.204407,590.386902 
	C776.163818,609.290955 774.761292,628.205933 773.535156,647.086365 
	C773.087158,653.985107 771.551697,660.846802 770.117676,667.642090 
	C764.359619,694.927063 747.267151,711.371399 720.544495,717.639954 
	C704.828674,721.326538 688.820129,723.765442 672.818970,726.789062 
	C672.818970,737.017090 672.818970,747.212830 672.818970,757.855042 
	C758.446655,757.855042 843.574890,757.855042 929.189331,757.855042 
	C929.189331,747.165955 929.189331,736.953491 929.189331,726.993713 
	C912.437439,722.542542 895.860107,717.945374 879.181641,713.750366 
	C852.958618,707.154724 836.602295,691.213135 829.353699,664.859314 
	C822.582581,640.241150 820.709229,615.074158 820.599487,589.981689 
	C820.039795,462.019806 820.341064,334.054108 820.341064,206.089737 
	C820.341064,202.862564 820.341064,199.635391 820.341064,196.861557 
	C824.588562,194.805649 826.157776,196.751297 827.396057,199.412537 
	C831.460022,208.146515 835.554749,216.866272 839.598572,225.609573 
	C858.145508,265.710602 876.652893,305.829895 895.225830,345.918854 
	C910.728760,379.381165 926.336487,412.794922 941.836487,446.258606 
	C958.031372,481.222717 974.140076,516.226685 990.310425,551.202209 
	C1004.112305,581.054932 1017.890259,610.919006 1031.791016,640.725647 
	C1039.791016,657.879456 1048.014282,674.929138 1056.100830,692.724548 
	C1058.018188,697.000183 1059.971680,700.576965 1061.956421,704.090088 
	C1061.987549,704.026367 1061.852905,703.981873 1061.776489,704.421936 
	C1061.700073,704.862000 1062.118164,705.651428 1062.156250,706.395264 
	C1063.853271,710.745911 1065.838013,714.240906 1067.120117,717.976990 
	C1077.580322,748.458984 1087.938477,778.976013 1098.271484,809.501465 
	C1116.170410,862.376770 1134.018677,915.269226 1151.929199,968.140686 
	C1153.063110,971.487915 1154.551270,974.715088 1155.882324,978.017212 
	C1217.391479,945.014099 1277.865601,912.246216 1338.643188,880.050842 
	C1393.289917,851.103088 1448.257324,822.760132 1503.110352,794.202515 
	C1518.740723,786.065002 1534.435181,778.049194 1550.152832,770.081543 
	C1585.742432,752.040527 1621.364746,734.064087 1657.382812,716.664734 
	C1684.107056,737.608276 1713.310181,752.421448 1744.993896,762.301636 
	C1783.591553,774.337708 1822.992310,776.726257 1863.114746,772.516479 
	C1889.732666,769.723633 1915.474731,763.936218 1940.124512,753.674133 
	C1967.375977,742.328979 1992.016357,726.902466 2012.896973,705.729553 
	C2032.911743,685.434692 2049.086670,662.422241 2062.083008,637.160706 
	C2068.561768,624.567688 2074.421143,611.656128 2080.911621,598.158752 
	C2068.398682,592.284058 2057.132568,586.994629 2045.587280,581.574219 
	C2044.230225,584.578552 2043.199829,586.630859 2042.358276,588.757935 
	C2034.495239,608.632324 2024.401733,627.273315 2011.769775,644.536499 
	C1993.038574,670.135559 1970.450684,691.287659 1941.489502,704.901062 
	C1912.804932,718.384399 1882.684570,723.726379 1850.879395,722.529419 
	C1807.099365,720.881958 1769.703613,704.937378 1737.849121,675.630859 
	C1783.106812,653.290955 1827.773193,631.338989 1872.545776,609.605591 
	C1902.083618,595.267334 1931.712158,581.111633 1961.411621,567.111023 
	C2001.899780,548.024536 2042.452881,529.074524 2083.064209,510.251678 
	C2098.383789,503.151245 2113.943604,496.568970 2129.648193,490.595062 
	C2131.806885,502.193329 2133.411621,513.010254 2135.665283,523.690186 
	C2148.114746,582.685547 2172.816406,635.511902 2213.729492,680.466187 
	C2241.273193,710.730774 2273.815186,733.622498 2311.164551,749.922119 
	C2366.615967,774.121826 2424.339355,779.622742 2483.719971,770.306580 
	C2542.509521,761.082947 2593.573730,735.666016 2637.122070,695.333923 
	C2679.627197,655.967896 2708.059570,607.732971 2724.149658,552.326172 
	C2736.634766,509.332977 2740.928711,465.407593 2738.624512,420.554230 
	C2736.996338,388.863220 2732.363281,357.909851 2723.789795,327.464172 
	C2716.183594,300.453033 2704.191406,275.311890 2691.569336,250.597290 
	C2714.665771,241.791107 2736.828857,232.830490 2759.274414,224.644409 
	C2834.119141,197.347885 2908.821533,169.629654 2984.051514,143.431641 
	C3041.110107,123.561668 3098.626465,104.899071 3156.424561,87.291763 
	C3211.949707,70.376816 3268.055664,55.354351 3323.998291,39.831081 
	C3342.518799,34.691971 3361.324707,30.581026 3380.000000,26.000008 
	C3380.000000,445.181610 3380.000000,864.363220 3380.000000,1284.000000 
	C3033.277344,1284.000000 2686.554688,1284.000000 2339.183594,1283.335083 
	C2342.667480,1272.684204 2346.799316,1262.698120 2350.679443,1253.320435 
	C2341.236816,1246.556519 2333.005615,1240.660400 2326.088623,1235.705566 
	C2331.241699,1221.218994 2336.422363,1208.677734 2340.139648,1195.716675 
	C2345.324707,1177.636963 2344.913086,1158.870361 2344.204590,1140.288696 
	C2343.506104,1121.966553 2340.163574,1104.052979 2332.510254,1087.177490 
	C2324.424561,1069.349609 2312.466064,1055.235596 2294.343994,1046.855835 
	C2283.422852,1041.805908 2271.901611,1041.509155 2260.196289,1041.595337 
	C2242.686279,1041.724243 2227.841553,1048.092529 2215.369385,1060.114868 
	C2202.058350,1072.946411 2194.159912,1088.894287 2189.814697,1106.637939 
	C2183.589844,1132.058960 2182.637939,1157.816650 2186.425293,1183.654419 
	C2189.292725,1203.215698 2194.943848,1221.904419 2207.281250,1237.867920 
	C2216.439697,1249.718506 2227.822266,1258.324219 2242.559326,1262.462402 
	C2262.627197,1268.097778 2281.893555,1266.719360 2300.240234,1257.409058 
	C2312.326904,1266.396606 2324.163330,1275.198364 2336.000000,1284.000000 
M1793.301880,1157.784790 
	C1788.440063,1154.033203 1783.578247,1150.281616 1778.677002,1146.499756 
	C1782.322754,1142.280518 1786.715332,1138.449585 1789.558228,1133.692383 
	C1802.737427,1111.638428 1803.361328,1089.144409 1790.292358,1066.762085 
	C1783.767212,1055.586792 1774.182617,1048.199097 1761.128174,1046.363892 
	C1753.265747,1045.258667 1745.295532,1044.502197 1737.362793,1044.396362 
	C1717.046509,1044.125244 1696.724121,1044.280029 1676.404419,1044.338257 
	C1673.873413,1044.345459 1671.343750,1044.796997 1668.743164,1045.049438 
	C1668.743164,1117.595215 1668.743164,1189.426025 1668.743164,1261.616699 
	C1670.356323,1261.898071 1671.600586,1262.301636 1672.845825,1262.304443 
	C1691.833008,1262.348389 1710.824585,1262.583008 1729.806274,1262.256714 
	C1742.064697,1262.046143 1754.356445,1261.453247 1766.544556,1260.180664 
	C1776.791870,1259.110718 1785.669556,1254.304932 1792.045532,1246.057739 
	C1810.163086,1222.622437 1814.376709,1183.568970 1793.301880,1157.784790 
M1014.345276,1191.087280 
	C1014.345276,1184.852295 1014.345276,1178.617432 1014.345276,1172.542114 
	C1035.499023,1170.096924 1042.976562,1173.637329 1051.971558,1190.661987 
	C1062.840454,1211.232910 1073.356812,1231.990234 1084.030640,1252.664307 
	C1085.676392,1255.851929 1087.347412,1259.026367 1088.806396,1261.822754 
	C1102.421265,1261.822754 1115.249512,1261.822754 1128.850342,1261.822754 
	C1128.121826,1259.608276 1127.779175,1258.035522 1127.111084,1256.615723 
	C1118.907837,1239.184204 1111.121216,1221.533936 1102.241211,1204.452393 
	C1097.073608,1194.511841 1090.445557,1185.265381 1083.826294,1176.179077 
	C1081.439087,1172.901978 1077.158691,1171.004272 1072.608765,1167.638794 
	C1077.280640,1165.712769 1079.072144,1164.838745 1080.948364,1164.222168 
	C1093.970215,1159.941650 1103.862793,1151.734863 1109.206421,1139.218872 
	C1119.560547,1114.967651 1118.951294,1090.681396 1106.552368,1067.252930 
	C1101.043701,1056.843994 1092.377197,1049.505371 1080.315918,1047.615723 
	C1070.853638,1046.133423 1061.292603,1044.668701 1051.747070,1044.454224 
	C1030.772949,1043.982788 1009.780884,1044.290527 988.796265,1044.331543 
	C986.235229,1044.336548 983.674805,1044.656250 980.930725,1044.842529 
	C980.930725,1117.569458 980.930725,1189.647705 980.930725,1261.639160 
	C992.366638,1261.639160 1003.159546,1261.639160 1014.345337,1261.639160 
	C1014.345337,1238.304199 1014.345337,1215.682251 1014.345276,1191.087280 
M1262.679199,1224.310303 
	C1235.495972,1224.310303 1208.312622,1224.310303 1181.135010,1224.310303 
	C1181.135010,1204.361450 1181.135010,1185.626465 1181.135010,1166.140503 
	C1208.432617,1166.140503 1234.949097,1166.140503 1261.674927,1166.140503 
	C1261.674927,1153.637085 1261.674927,1141.894165 1261.674927,1129.651611 
	C1247.729980,1129.651611 1234.448242,1129.690430 1221.166626,1129.640869 
	C1207.683228,1129.590454 1194.182617,1129.870728 1180.896240,1129.446411 
	C1180.896240,1113.089478 1180.896240,1098.226562 1180.896240,1082.342285 
	C1210.545044,1082.342285 1239.666260,1082.342285 1269.034058,1082.342285 
	C1269.034058,1069.207153 1269.034058,1057.113892 1269.034058,1044.970947 
	C1227.934814,1044.970947 1187.500854,1044.970947 1146.998657,1044.970947 
	C1146.998657,1117.700684 1146.998657,1189.767700 1146.998657,1261.608887 
	C1189.121216,1261.608887 1230.557983,1261.608887 1271.834229,1261.608887 
	C1271.834229,1248.990356 1271.834229,1237.121704 1271.834229,1224.696045 
	C1269.106201,1224.550537 1266.853516,1224.430298 1262.679199,1224.310303 
M2039.015625,1166.348389 
	C2055.894775,1166.348389 2072.773926,1166.348389 2089.573242,1166.348389 
	C2089.573242,1153.442139 2089.573242,1141.687988 2089.573242,1129.188232 
	C2062.274170,1129.188232 2035.740601,1129.188232 2009.037109,1129.188232 
	C2009.037109,1113.294556 2009.037109,1098.186279 2009.037109,1082.007812 
	C2038.836914,1082.007812 2067.961182,1082.007812 2097.185547,1082.007812 
	C2097.185547,1069.067139 2097.185547,1057.216431 2097.185547,1044.849121 
	C2056.227783,1044.849121 2015.771484,1044.849121 1974.949585,1044.849121 
	C1974.949585,1117.498535 1974.949585,1189.607788 1974.949585,1261.624023 
	C2017.044922,1261.624023 2058.503662,1261.624023 2099.837402,1261.624023 
	C2099.837402,1249.011597 2099.837402,1237.135376 2099.837402,1224.124756 
	C2069.243164,1224.124756 2039.132935,1224.124756 2009.173828,1224.124756 
	C2007.332031,1206.351929 2007.921509,1173.499390 2010.192749,1166.348389 
	C2019.049805,1166.348389 2028.037598,1166.348389 2039.015625,1166.348389 
M2569.712158,1088.594727 
	C2552.631348,1146.168701 2535.550537,1203.742554 2518.289307,1261.924805 
	C2530.630859,1261.924805 2542.177246,1261.924805 2554.489258,1261.924805 
	C2559.173096,1245.468994 2563.854248,1229.022095 2568.458984,1212.844482 
	C2590.364014,1212.844482 2611.246338,1212.844482 2632.835693,1212.844482 
	C2637.645264,1229.234131 2642.382324,1245.376221 2647.156006,1261.643799 
	C2659.531982,1261.643799 2671.568604,1261.643799 2684.317627,1261.643799 
	C2662.179932,1188.774048 2640.301270,1116.756104 2618.426025,1044.749756 
	C2606.032471,1044.749756 2594.471436,1044.749756 2582.483398,1044.749756 
	C2578.303711,1059.029541 2574.206543,1073.026978 2569.712158,1088.594727 
M1594.273804,1070.742798 
	C1591.570312,1061.946899 1588.866821,1053.151123 1586.256226,1044.657959 
	C1573.885254,1044.657959 1562.605103,1044.657959 1550.530640,1044.657959 
	C1529.185181,1116.934448 1507.869507,1189.109619 1486.373291,1261.896484 
	C1498.613037,1261.896484 1510.149536,1261.896484 1522.546143,1261.896484 
	C1527.142700,1245.509277 1531.762817,1229.038330 1536.314331,1212.812012 
	C1558.282471,1212.812012 1579.174438,1212.812012 1600.698486,1212.812012 
	C1605.654419,1229.430542 1610.539185,1245.810425 1615.273071,1261.683960 
	C1628.028687,1261.683960 1639.816406,1261.683960 1652.314087,1261.683960 
	C1646.660400,1243.116821 1641.261597,1225.361084 1635.847290,1207.609985 
	C1622.092529,1162.513428 1608.330811,1117.419067 1594.273804,1070.742798 
M2467.651123,1113.000000 
	C2467.651123,1123.658691 2467.812744,1134.320435 2467.614014,1144.975342 
	C2467.298096,1161.909668 2467.111816,1178.861694 2466.090576,1195.759155 
	C2465.720947,1201.873047 2464.096436,1208.359619 2461.309814,1213.785034 
	C2455.674561,1224.755493 2445.314209,1228.450684 2433.619385,1227.516479 
	C2421.855713,1226.576782 2413.018311,1220.590454 2408.118164,1209.524414 
	C2404.266846,1200.826416 2403.688965,1191.571777 2403.688477,1182.236938 
	C2403.686035,1139.935547 2403.696533,1097.634033 2403.670898,1055.332642 
	C2403.668701,1051.816284 2403.434570,1048.300049 2403.309814,1044.826416 
	C2391.615723,1044.826416 2381.087646,1044.826416 2370.184082,1044.826416 
	C2369.976562,1046.899414 2369.677979,1048.496460 2369.677002,1050.093628 
	C2369.649658,1094.726685 2369.383057,1139.362183 2369.804443,1183.991211 
	C2369.941406,1198.518555 2370.608398,1213.235229 2375.879639,1227.128296 
	C2383.798340,1247.997925 2397.766113,1261.776855 2420.810303,1264.333740 
	C2428.039062,1265.135498 2435.355713,1265.779297 2442.610107,1265.598511 
	C2472.050781,1264.865601 2489.880371,1246.864990 2496.155518,1224.569946 
	C2501.281982,1206.355347 2500.857422,1187.687622 2501.370605,1169.272705 
	C2502.446533,1130.665283 2501.705322,1092.006836 2501.664062,1053.369263 
	C2501.661133,1050.512207 2501.287109,1047.655518 2501.086670,1044.811646 
	C2489.654541,1044.811646 2479.127197,1044.811646 2467.651123,1044.811646 
	C2467.651123,1067.202148 2467.651123,1089.101074 2467.651123,1113.000000 
M3075.523438,1145.529907 
	C3077.293945,1149.109741 3078.837891,1152.824951 3080.879639,1156.242676 
	C3086.156738,1165.075073 3088.057617,1174.428711 3087.812988,1184.783203 
	C3087.285156,1207.098755 3087.650635,1229.435547 3087.650635,1251.763550 
	C3087.650635,1255.003906 3087.650391,1258.244263 3087.650391,1261.735596 
	C3099.375244,1261.735596 3110.142822,1261.735596 3121.688232,1261.735596 
	C3121.688232,1257.863770 3121.687988,1254.596191 3121.687988,1251.328613 
	C3121.687988,1227.001099 3121.566895,1202.672241 3121.805176,1178.347046 
	C3121.845703,1174.185547 3122.709961,1169.716431 3124.420166,1165.945557 
	C3129.912109,1153.835449 3136.038086,1142.014282 3141.812500,1130.030273 
	C3153.932861,1104.874634 3166.007080,1079.696777 3178.037109,1054.498047 
	C3179.498779,1051.436768 3180.572266,1048.190308 3182.007812,1044.570679 
	C3168.183105,1044.570679 3155.884521,1044.570679 3143.240723,1044.570679 
	C3130.878662,1072.404419 3118.554932,1100.151367 3105.651611,1129.204102 
	C3092.290283,1099.697144 3079.732910,1071.965820 3067.392578,1044.713623 
	C3053.745361,1044.713623 3041.207764,1044.713623 3027.858887,1044.713623 
	C3028.591553,1046.806885 3028.972656,1048.344360 3029.643799,1049.742554 
	C3034.822754,1060.531006 3040.114014,1071.265991 3045.264160,1082.067993 
	C3055.135010,1102.771606 3064.936035,1123.508423 3075.523438,1145.529907 
M2975.685791,1238.958374 
	C2975.819580,1187.373169 2975.952637,1135.788086 2976.107910,1084.203003 
	C2976.108643,1083.936157 2976.391113,1083.640503 2976.600586,1083.412109 
	C2976.822266,1083.169922 2977.114014,1082.991699 2978.462646,1081.927979 
	C2992.850342,1081.927979 3008.335938,1081.927979 3024.268555,1081.927979 
	C3024.334717,1068.965088 3024.481689,1056.871216 3024.209473,1044.802002 
	C2979.638184,1044.802002 2936.496094,1044.802002 2892.879395,1044.802002 
	C2892.879395,1057.398682 2892.879395,1069.498047 2892.879395,1082.619141 
	C2909.244629,1082.619141 2925.046143,1082.619141 2941.864258,1082.619141 
	C2941.864258,1143.015137 2941.864258,1202.396362 2941.864258,1262.567139 
	C2953.666016,1261.689697 2964.475830,1263.448120 2975.685547,1261.445312 
	C2975.685547,1254.182007 2975.685547,1247.562256 2975.685791,1238.958374 
M2739.268799,1224.280762 
	C2733.039795,1223.492676 2735.813232,1218.634644 2735.803711,1215.645874 
	C2735.638184,1163.024902 2735.683838,1110.403442 2735.683838,1057.781982 
	C2735.683838,1054.233521 2735.683838,1050.685059 2735.683838,1047.013916 
	C2723.678955,1047.013916 2712.906982,1047.013916 2702.383545,1047.013916 
	C2702.383545,1119.134277 2702.383545,1190.551270 2702.383545,1261.810181 
	C2741.272949,1261.810181 2779.430908,1261.810181 2817.664795,1261.810181 
	C2817.664795,1249.164551 2817.664795,1237.070557 2817.664795,1224.306396 
	C2791.735596,1224.306396 2766.481201,1224.306396 2739.268799,1224.280762 
M1905.000000,1262.355469 
	C1920.241821,1262.355469 1935.483521,1262.355469 1951.026855,1262.355469 
	C1951.026855,1249.252930 1951.026855,1237.153564 1951.026855,1223.960693 
	C1923.605835,1223.960693 1896.824585,1223.960693 1869.335938,1223.960693 
	C1869.335938,1164.333130 1869.335938,1105.807251 1869.335938,1046.954834 
	C1857.807861,1046.954834 1847.029419,1046.954834 1836.373779,1046.954834 
	C1836.373779,1119.051147 1836.373779,1190.500732 1836.373779,1262.355469 
	C1859.061035,1262.355469 1881.030518,1262.355469 1905.000000,1262.355469 
M1345.000000,1262.355469 
	C1368.541138,1262.355469 1392.082275,1262.355469 1415.644165,1262.355469 
	C1415.644165,1249.135132 1415.644165,1237.041260 1415.644165,1224.174561 
	C1388.423950,1224.174561 1361.895020,1224.174561 1334.269165,1224.174561 
	C1334.269165,1164.639771 1334.269165,1105.877808 1334.269165,1046.438110 
	C1322.376099,1046.312134 1311.610962,1046.119629 1300.806763,1046.515503 
	C1300.806763,1119.003662 1300.806763,1190.183838 1300.806763,1262.355469 
	C1315.183594,1262.355469 1329.091919,1262.355469 1345.000000,1262.355469 
M1472.349365,1131.000000 
	C1472.349365,1102.438965 1472.349365,1073.877930 1472.349365,1044.940186 
	C1460.641113,1044.940186 1449.879272,1044.940186 1438.975830,1044.940186 
	C1438.975830,1117.651978 1438.975830,1189.727539 1438.975830,1261.601562 
	C1450.451294,1261.601562 1461.248535,1261.601562 1472.349365,1261.601562 
	C1472.349365,1218.231445 1472.349365,1175.615723 1472.349365,1131.000000 
M2873.686035,1087.000244 
	C2873.686035,1073.106934 2873.686035,1059.213623 2873.686035,1044.305786 
	C2867.431152,1044.305786 2862.186523,1044.305786 2856.941895,1044.305786 
	C2851.390625,1044.305786 2845.839355,1044.305786 2840.285645,1044.305786 
	C2840.285645,1117.618408 2840.285645,1189.706787 2840.285645,1262.239624 
	C2851.704590,1262.299438 2862.478516,1262.672974 2873.686035,1262.011597 
	C2873.686035,1203.505127 2873.686035,1146.252563 2873.686035,1087.000244 
z"/>
<path fill="#1A9A02" opacity="1.000000" stroke="none" 
	d="
M2129.393799,489.750488 
	C2113.943604,496.568970 2098.383789,503.151245 2083.064209,510.251678 
	C2042.452881,529.074524 2001.899780,548.024536 1961.411621,567.111023 
	C1931.712158,581.111633 1902.083618,595.267334 1872.545776,609.605591 
	C1827.773193,631.338989 1783.106812,653.290955 1737.168579,675.677124 
	C1712.426392,687.777222 1688.897339,699.322571 1665.413330,710.959045 
	C1662.478027,712.413452 1659.781128,714.348938 1656.973755,716.061462 
	C1621.364746,734.064087 1585.742432,752.040527 1550.152832,770.081543 
	C1534.435181,778.049194 1518.740723,786.065002 1503.110352,794.202515 
	C1448.257324,822.760132 1393.289917,851.103088 1338.643188,880.050842 
	C1277.865601,912.246216 1217.391479,945.014099 1155.882324,978.017212 
	C1154.551270,974.715088 1153.063110,971.487915 1151.929199,968.140686 
	C1134.018677,915.269226 1116.170410,862.376770 1098.271484,809.501465 
	C1087.938477,778.976013 1077.580322,748.458984 1067.120117,717.976990 
	C1065.838013,714.240906 1063.853271,710.745911 1062.419678,706.229126 
	C1062.885254,704.580750 1062.621216,704.135010 1061.852905,703.981873 
	C1061.852905,703.981873 1061.987549,704.026367 1062.113647,703.356445 
	C1061.001099,699.147095 1059.762451,695.607605 1058.404785,691.287903 
	C1038.030273,630.601868 1017.809937,570.684082 997.511536,510.792755 
	C958.943176,396.994965 920.329834,283.212402 881.736755,169.422958 
	C879.090698,161.621170 876.457886,153.814896 873.687988,145.623550 
	C882.548340,142.070541 890.544983,138.863876 898.541626,135.657211 
	C912.093750,154.072800 925.755188,172.409134 939.178711,190.917969 
	C991.593506,263.189178 1043.942993,335.507782 1096.292236,407.826447 
	C1107.187500,422.877716 1117.978271,438.004456 1129.594482,454.084045 
	C1139.024536,467.276031 1147.596558,479.538971 1156.378418,491.649811 
	C1159.078247,495.372864 1162.351562,498.680115 1165.665039,502.806946 
	C1166.663086,504.564941 1167.284668,505.747467 1168.063965,506.814819 
	C1193.337524,541.432922 1218.544434,576.100281 1243.952393,610.619568 
	C1254.362183,624.762390 1265.210938,638.582031 1276.028687,653.212219 
	C1278.164795,656.714783 1280.132202,659.553772 1282.063110,662.340149 
	C1308.518921,649.648438 1333.893799,637.528503 1359.209106,625.285583 
	C1364.243042,622.851196 1369.049194,619.945740 1373.960327,617.257568 
	C1399.494507,605.493896 1425.004395,593.676941 1450.569336,581.980530 
	C1480.045288,568.494812 1509.573486,555.123474 1539.065918,541.673767 
	C1541.169556,540.714417 1543.165771,539.519653 1546.543335,538.064819 
	C1549.130615,537.290405 1550.434448,536.994324 1551.635498,536.464844 
	C1582.710449,522.765320 1613.781860,509.057068 1644.819214,495.272552 
	C1646.268066,494.629089 1647.397705,493.266754 1649.364136,492.075500 
	C1657.385498,488.842163 1664.719360,485.774048 1672.052002,482.702759 
	C1758.429321,446.523499 1844.766479,410.247467 1931.206665,374.219055 
	C1959.407227,362.465088 1987.876465,351.356293 2016.971436,339.970642 
	C2030.495605,334.746643 2043.271362,329.504486 2056.047119,324.262360 
	C2075.503906,317.012604 2094.973145,309.796600 2114.413086,302.501801 
	C2128.620850,297.170380 2142.789795,291.735413 2158.192139,285.946777 
	C2159.583496,284.986603 2159.758789,284.426331 2159.934082,283.866089 
	C2159.934326,283.866089 2159.995117,283.989716 2160.680664,284.334015 
	C2164.539307,283.779236 2167.784424,283.076385 2170.875000,281.950043 
	C2195.446289,272.994995 2220.010986,264.021393 2244.528809,254.921265 
	C2255.971680,250.674088 2267.305908,246.133835 2279.172852,241.544922 
	C2279.800049,240.860382 2279.943115,240.357315 2279.990234,239.888580 
	C2279.894043,239.922943 2279.922363,240.125214 2280.678223,240.462006 
	C2288.342773,238.484528 2295.256104,236.185394 2302.158691,233.853653 
	C2357.072021,215.303055 2411.981201,196.740677 2466.896240,178.195236 
	C2480.961670,173.445251 2495.042725,168.742569 2509.864990,164.064529 
	C2512.547607,163.754990 2514.539062,163.585327 2516.407715,163.014175 
	C2533.761230,157.709885 2551.107910,152.381638 2568.421143,146.947586 
	C2572.154053,145.775940 2575.744873,144.151093 2579.401123,142.735046 
	C2604.256592,135.551117 2629.088867,128.285095 2653.971924,121.197998 
	C2742.364014,96.022514 2831.342773,73.197952 2921.248291,54.015785 
	C2978.306396,41.841980 3035.603027,30.932581 3093.324463,22.559937 
	C3129.687988,17.285316 3166.284180,13.505579 3202.849365,9.773175 
	C3227.223877,7.285133 3251.727295,6.061605 3277.985352,4.164644 
	C3285.447266,4.041167 3291.109619,4.247317 3296.741211,3.921453 
	C3299.854004,3.741339 3302.915527,2.669726 3306.000000,1.999994 
	C3330.433594,2.000000 3354.866943,2.000000 3380.000000,2.000000 
	C3380.000000,9.346331 3380.000000,16.714815 3380.000000,25.041656 
	C3361.324707,30.581026 3342.518799,34.691971 3323.998291,39.831081 
	C3268.055664,55.354351 3211.949707,70.376816 3156.424561,87.291763 
	C3098.626465,104.899071 3041.110107,123.561668 2984.051514,143.431641 
	C2908.821533,169.629654 2834.119141,197.347885 2759.274414,224.644409 
	C2736.828857,232.830490 2714.665771,241.791107 2690.963135,250.613144 
	C2664.075928,260.805298 2638.586426,270.749847 2613.142090,280.808563 
	C2610.745361,281.756134 2608.632324,283.422150 2605.699219,284.788544 
	C2603.452393,285.403595 2601.872559,285.933258 2600.338867,286.573273 
	C2517.570557,321.112091 2434.710449,355.433533 2352.083496,390.306946 
	C2313.223633,406.708130 2274.812500,424.172760 2235.418457,441.239838 
	C2233.692627,441.624359 2232.704834,441.833496 2231.805176,442.237854 
	C2199.520752,456.749847 2167.235107,471.258453 2134.990723,485.858765 
	C2132.955078,486.780487 2131.251709,488.436249 2129.393799,489.750488 
z"/>
<path fill="#190288" opacity="1.000000" stroke="none" 
	d="
M5.199909,401.678711 
	C10.711732,331.482819 34.468342,268.427490 79.482994,213.941437 
	C127.219582,156.160706 188.544174,121.963318 262.374207,109.803452 
	C283.789856,106.276276 305.403778,105.110413 326.932159,106.492432 
	C396.784607,110.976624 458.850433,134.905655 511.038757,182.485962 
	C563.593384,230.400253 593.813049,290.534332 607.979126,359.474640 
	C614.836304,392.845612 617.050415,426.648621 615.527161,460.551575 
	C612.629517,525.044373 596.325378,585.789978 560.345764,640.063232 
	C533.298218,680.862976 498.500397,713.830505 455.409882,737.565063 
	C421.285034,756.361328 384.882568,768.055115 346.088593,772.369934 
	C302.653442,777.200928 259.825836,774.330261 218.048843,761.416138 
	C175.196671,748.169617 137.160385,726.285034 104.571480,695.165283 
	C52.930370,645.852173 23.710663,584.790222 10.279820,515.503784 
	C8.014637,503.818329 7.124545,491.866241 5.342076,478.331787 
	C4.980983,473.782318 5.164429,470.885742 4.657015,468.115753 
	C4.385106,466.631409 2.924299,465.364838 2.000003,464.000000 
	C2.000000,449.291504 2.000000,434.583008 2.653553,418.577637 
	C3.938040,412.080048 4.568974,406.879395 5.199909,401.678711 
M303.210480,733.688232 
	C313.783813,733.222473 324.451111,733.493896 334.913757,732.159912 
	C374.736877,727.082336 408.204803,709.022949 435.303558,679.802612 
	C458.008301,655.320251 472.739532,625.903748 483.890503,594.653870 
	C499.572968,550.704651 504.852814,504.968079 506.215820,458.710815 
	C507.460968,416.453430 504.660400,374.430695 496.123535,332.899414 
	C488.716888,296.866791 477.586060,262.223846 458.036560,230.764023 
	C435.504120,194.503922 404.910278,167.882538 363.787781,154.913589 
	C340.888580,147.691757 317.413849,145.469925 293.131042,147.373108 
	C253.948303,150.444046 220.748291,165.380142 192.391876,192.127289 
	C163.771240,219.123672 146.359619,252.882278 134.350067,289.607452 
	C118.852623,336.998627 113.394592,386.112305 112.582169,435.687256 
	C112.235222,456.858398 114.433945,478.080566 115.695396,499.266479 
	C117.299072,526.199890 122.241844,552.580872 129.844589,578.436035 
	C142.012741,619.816956 160.491364,657.647583 191.784332,688.332397 
	C222.243515,718.199524 258.929749,732.683838 303.210480,733.688232 
z"/>
<path fill="#22960D" opacity="1.000000" stroke="none" 
	d="
M2336.500000,1284.000000 
	C2324.163330,1275.198364 2312.326904,1266.396606 2300.240234,1257.409058 
	C2281.893555,1266.719360 2262.627197,1268.097778 2242.559326,1262.462402 
	C2227.822266,1258.324219 2216.439697,1249.718506 2207.281250,1237.867920 
	C2194.943848,1221.904419 2189.292725,1203.215698 2186.425293,1183.654419 
	C2182.637939,1157.816650 2183.589844,1132.058960 2189.814697,1106.637939 
	C2194.159912,1088.894287 2202.058350,1072.946411 2215.369385,1060.114868 
	C2227.841553,1048.092529 2242.686279,1041.724243 2260.196289,1041.595337 
	C2271.901611,1041.509155 2283.422852,1041.805908 2294.343994,1046.855835 
	C2312.466064,1055.235596 2324.424561,1069.349609 2332.510254,1087.177490 
	C2340.163574,1104.052979 2343.506104,1121.966553 2344.204590,1140.288696 
	C2344.913086,1158.870361 2345.324707,1177.636963 2340.139648,1195.716675 
	C2336.422363,1208.677734 2331.241699,1221.218994 2326.088623,1235.705566 
	C2333.005615,1240.660400 2341.236816,1246.556519 2350.679443,1253.320435 
	C2346.799316,1262.698120 2342.667480,1272.684204 2338.267822,1283.335083 
	C2338.000000,1284.000000 2337.000000,1284.000000 2336.500000,1284.000000 
M2266.575684,1218.505005 
	C2263.175781,1216.530273 2259.775879,1214.555542 2255.949219,1212.333008 
	C2259.333252,1203.710205 2262.529053,1195.566528 2266.387939,1185.732910 
	C2277.595459,1193.577026 2287.502686,1200.511230 2298.390137,1208.131348 
	C2301.021240,1200.579468 2304.099854,1193.572632 2305.889404,1186.250610 
	C2310.595703,1166.996460 2310.730225,1147.488403 2307.667725,1127.942261 
	C2305.687256,1115.303345 2301.783936,1103.387085 2293.611816,1093.306519 
	C2279.722168,1076.173218 2254.410400,1074.559326 2238.756836,1089.877686 
	C2231.475098,1097.003418 2226.944336,1105.888550 2224.197266,1115.646973 
	C2218.796875,1134.832764 2218.561035,1154.474976 2220.589355,1174.019165 
	C2222.211670,1189.650879 2226.549316,1204.634644 2237.675049,1216.780884 
	C2247.693604,1227.718384 2262.428955,1231.426758 2274.618652,1225.214722 
	C2272.208740,1223.173950 2269.984131,1221.290527 2266.575684,1218.505005 
z"/>
<path fill="#B1ABD7" opacity="1.000000" stroke="none" 
	d="
M4.659246,401.669678 
	C4.568974,406.879395 3.938040,412.080048 2.653553,417.640381 
	C2.000000,413.258881 2.000000,408.517792 1.999999,402.888336 
	C2.706193,401.886871 3.412389,401.773743 4.659246,401.669678 
z"/>
<path fill="#B0DAA9" opacity="1.000000" stroke="none" 
	d="
M3305.070801,1.999994 
	C3302.915527,2.669726 3299.854004,3.741339 3296.741211,3.921453 
	C3291.109619,4.247317 3285.447266,4.041167 3278.870605,3.977022 
	C3277.943604,3.896901 3278.053955,2.950899 3278.026855,2.475449 
	C3286.713867,2.000000 3295.427490,2.000000 3305.070801,1.999994 
z"/>
<path fill="#B6AFD9" opacity="1.000000" stroke="none" 
	d="
M2.000003,464.875000 
	C2.924299,465.364838 4.385106,466.631409 4.657015,468.115753 
	C5.164429,470.885742 4.980983,473.782318 5.131018,477.469971 
	C4.474772,478.228638 3.772544,478.143585 2.535158,478.029266 
	C2.000000,473.916656 2.000000,469.833344 2.000003,464.875000 
z"/>
<path fill="#180288" opacity="1.000000" stroke="none" 
	d="
M2129.648193,490.595093 
	C2131.251709,488.436249 2132.955078,486.780487 2134.990723,485.858765 
	C2167.235107,471.258453 2199.520752,456.749847 2231.805176,442.237854 
	C2232.704834,441.833496 2233.692627,441.624359 2235.479248,442.246521 
	C2236.167236,475.415314 2238.770508,507.430817 2244.277832,539.210876 
	C2251.972168,583.608948 2266.719238,625.266663 2292.849121,662.333191 
	C2311.821533,689.246704 2336.014648,710.095581 2366.901611,722.260986 
	C2399.218750,734.989746 2432.661133,737.005737 2466.651855,730.847351 
	C2501.053711,724.614380 2530.197998,708.545654 2554.848389,683.764893 
	C2574.917725,663.589417 2588.572510,639.413147 2599.919922,613.764526 
	C2620.385010,567.507507 2627.368896,518.302673 2629.418701,468.404144 
	C2630.972412,430.579193 2630.023193,392.680847 2623.698242,355.152283 
	C2619.670410,331.254852 2615.099365,307.497223 2606.387451,284.754578 
	C2608.632324,283.422150 2610.745361,281.756134 2613.142090,280.808563 
	C2638.586426,270.749847 2664.075928,260.805298 2690.159180,250.813477 
	C2704.191406,275.311890 2716.183594,300.453033 2723.789795,327.464172 
	C2732.363281,357.909851 2736.996338,388.863220 2738.624512,420.554230 
	C2740.928711,465.407593 2736.634766,509.332977 2724.149658,552.326172 
	C2708.059570,607.732971 2679.627197,655.967896 2637.122070,695.333923 
	C2593.573730,735.666016 2542.509521,761.082947 2483.719971,770.306580 
	C2424.339355,779.622742 2366.615967,774.121826 2311.164551,749.922119 
	C2273.815186,733.622498 2241.273193,710.730774 2213.729492,680.466187 
	C2172.816406,635.511902 2148.114746,582.685547 2135.665283,523.690186 
	C2133.411621,513.010254 2131.806885,502.193329 2129.648193,490.595093 
z"/>
<path fill="#190388" opacity="1.000000" stroke="none" 
	d="
M1373.855835,616.234619 
	C1369.049194,619.945740 1364.243042,622.851196 1359.209106,625.285583 
	C1333.893799,637.528503 1308.518921,649.648438 1282.063110,662.340149 
	C1280.132202,659.553772 1278.164795,656.714783 1276.215820,652.249756 
	C1276.264648,504.975830 1276.297852,359.328003 1276.302856,213.680191 
	C1276.302856,211.394516 1275.956299,209.108856 1275.782837,206.961700 
	C1269.625977,205.074478 1269.595459,210.223694 1268.509888,213.129684 
	C1262.932495,228.061661 1257.746216,243.139267 1252.373413,258.148224 
	C1232.335083,314.124115 1212.241943,370.080444 1192.243286,426.070526 
	C1183.193359,451.407593 1174.317139,476.806732 1165.362183,502.177795 
	C1162.351562,498.680115 1159.078247,495.372864 1156.378418,491.649811 
	C1147.596558,479.538971 1139.024536,467.276031 1130.176758,454.395508 
	C1137.769043,434.325256 1145.695679,414.985809 1153.312988,395.525330 
	C1167.228638,359.973724 1180.951660,324.346802 1194.772583,288.758118 
	C1207.635498,255.636169 1221.282959,222.792435 1233.122681,189.309143 
	C1240.727417,167.802902 1245.685547,145.360825 1252.109741,122.335632 
	C1319.850464,122.335632 1389.011353,122.335632 1458.926270,122.335632 
	C1458.926270,132.847992 1458.926270,143.576050 1458.926270,154.374893 
	C1446.616577,156.218842 1434.552368,157.860901 1422.553833,159.891464 
	C1416.348267,160.941666 1410.203125,162.476410 1404.127930,164.145798 
	C1382.492310,170.090958 1376.272339,182.467682 1373.720825,202.393982 
	C1373.552856,203.705948 1373.682495,205.056717 1373.682739,206.389435 
	C1373.705078,342.663544 1373.728271,478.937683 1373.855835,616.234619 
z"/>
<path fill="#190288" opacity="1.000000" stroke="none" 
	d="
M898.449463,134.880615 
	C890.544983,138.863876 882.548340,142.070541 873.687988,145.623550 
	C876.457886,153.814896 879.090698,161.621170 881.736755,169.422958 
	C920.329834,283.212402 958.943176,396.994965 997.511536,510.792755 
	C1017.809937,570.684082 1038.030273,630.601868 1057.807373,691.256714 
	C1056.931641,692.012451 1056.534424,692.019043 1056.137085,692.025696 
	C1048.014282,674.929138 1039.791016,657.879456 1031.791016,640.725647 
	C1017.890259,610.919006 1004.112305,581.054932 990.310425,551.202209 
	C974.140076,516.226685 958.031372,481.222717 941.836487,446.258606 
	C926.336487,412.794922 910.728760,379.381165 895.225830,345.918854 
	C876.652893,305.829895 858.145508,265.710602 839.598572,225.609573 
	C835.554749,216.866272 831.460022,208.146515 827.396057,199.412537 
	C826.157776,196.751297 824.588562,194.805649 820.341064,196.861557 
	C820.341064,199.635391 820.341064,202.862564 820.341064,206.089737 
	C820.341064,334.054108 820.039795,462.019806 820.599487,589.981689 
	C820.709229,615.074158 822.582581,640.241150 829.353699,664.859314 
	C836.602295,691.213135 852.958618,707.154724 879.181641,713.750366 
	C895.860107,717.945374 912.437439,722.542542 929.189331,726.993713 
	C929.189331,736.953491 929.189331,747.165955 929.189331,757.855042 
	C843.574890,757.855042 758.446655,757.855042 672.818970,757.855042 
	C672.818970,747.212830 672.818970,737.017090 672.818970,726.789062 
	C688.820129,723.765442 704.828674,721.326538 720.544495,717.639954 
	C747.267151,711.371399 764.359619,694.927063 770.117676,667.642090 
	C771.551697,660.846802 773.087158,653.985107 773.535156,647.086365 
	C774.761292,628.205933 776.163818,609.290955 776.204407,590.386902 
	C776.446716,477.418884 776.440247,364.449738 776.148193,251.481964 
	C776.118469,239.974289 774.714661,228.219803 772.080322,217.019211 
	C765.803467,190.331528 748.674133,172.926361 722.954529,163.866486 
	C708.476196,158.766418 693.599121,155.598190 676.927307,155.479080 
	C675.752991,144.440231 676.445801,133.681717 676.506592,122.289673 
	C749.202393,122.289673 821.348328,122.289673 894.137207,122.289673 
	C895.473938,126.031906 896.915649,130.067963 898.449463,134.880615 
z"/>
<path fill="#190288" opacity="1.000000" stroke="none" 
	d="
M2055.883301,323.318359 
	C2043.271362,329.504486 2030.495605,334.746643 2016.856445,339.197845 
	C2011.247681,322.508301 2006.937256,306.463715 2001.660156,290.743744 
	C1992.650635,263.905640 1981.578979,237.981262 1965.218872,214.609436 
	C1942.729248,182.481125 1914.283447,158.391663 1874.903809,150.536407 
	C1838.943604,143.363266 1804.125366,148.621964 1771.043457,164.283035 
	C1731.555298,182.976822 1703.691162,213.617081 1684.353760,252.048065 
	C1658.832397,302.768616 1649.294556,357.501068 1646.396606,413.626801 
	C1645.041748,439.867310 1645.876099,466.094147 1648.676025,492.239197 
	C1647.397705,493.266754 1646.268066,494.629089 1644.819214,495.272552 
	C1613.781860,509.057068 1582.710449,522.765320 1551.635498,536.464844 
	C1550.434448,536.994324 1549.130615,537.290405 1547.167725,537.666992 
	C1544.178467,520.905945 1541.122803,504.233215 1539.815796,487.424561 
	C1538.298584,467.912323 1537.368896,448.256287 1537.875610,428.706482 
	C1538.772339,394.113220 1543.921021,359.989655 1554.369507,326.914795 
	C1569.045532,280.457672 1591.307373,238.205978 1624.446167,201.962418 
	C1668.140381,154.174805 1721.998047,124.806534 1785.321533,112.835258 
	C1812.800659,107.640366 1840.612183,107.363457 1868.598755,109.336548 
	C1913.989746,112.536674 1955.424438,127.139038 1994.374878,149.885803 
	C1995.194336,150.364349 1996.173096,150.570160 1997.980713,151.235641 
	C2002.546631,143.722061 2007.466675,136.274292 2011.685425,128.448425 
	C2014.365479,123.476921 2017.475708,121.146721 2023.420288,121.507294 
	C2032.652954,122.067314 2041.944824,121.655251 2051.839844,121.655251 
	C2052.034668,124.490677 2052.291260,126.707542 2052.324219,128.927734 
	C2053.011475,175.150330 2053.618408,221.374207 2054.366455,267.595795 
	C2054.662109,285.857849 2055.259766,304.115021 2055.883301,323.318359 
z"/>
<path fill="#1A0388" opacity="1.000000" stroke="none" 
	d="
M1657.382812,716.664734 
	C1659.781128,714.348938 1662.478027,712.413452 1665.413330,710.959045 
	C1688.897339,699.322571 1712.426392,687.777222 1736.622314,676.157837 
	C1769.703613,704.937378 1807.099365,720.881958 1850.879395,722.529419 
	C1882.684570,723.726379 1912.804932,718.384399 1941.489502,704.901062 
	C1970.450684,691.287659 1993.038574,670.135559 2011.769775,644.536499 
	C2024.401733,627.273315 2034.495239,608.632324 2042.358276,588.757935 
	C2043.199829,586.630859 2044.230225,584.578552 2045.587280,581.574219 
	C2057.132568,586.994629 2068.398682,592.284058 2080.911621,598.158752 
	C2074.421143,611.656128 2068.561768,624.567688 2062.083008,637.160706 
	C2049.086670,662.422241 2032.911743,685.434692 2012.896973,705.729553 
	C1992.016357,726.902466 1967.375977,742.328979 1940.124512,753.674133 
	C1915.474731,763.936218 1889.732666,769.723633 1863.114746,772.516479 
	C1822.992310,776.726257 1783.591553,774.337708 1744.993896,762.301636 
	C1713.310181,752.421448 1684.107056,737.608276 1657.382812,716.664734 
z"/>
<path fill="#23970D" opacity="1.000000" stroke="none" 
	d="
M1793.798584,1158.306396 
	C1814.376709,1183.568970 1810.163086,1222.622437 1792.045532,1246.057739 
	C1785.669556,1254.304932 1776.791870,1259.110718 1766.544556,1260.180664 
	C1754.356445,1261.453247 1742.064697,1262.046143 1729.806274,1262.256714 
	C1710.824585,1262.583008 1691.833008,1262.348389 1672.845825,1262.304443 
	C1671.600586,1262.301636 1670.356323,1261.898071 1668.743164,1261.616699 
	C1668.743164,1189.426025 1668.743164,1117.595215 1668.743164,1045.049438 
	C1671.343750,1044.796997 1673.873413,1044.345459 1676.404419,1044.338257 
	C1696.724121,1044.280029 1717.046509,1044.125244 1737.362793,1044.396362 
	C1745.295532,1044.502197 1753.265747,1045.258667 1761.128174,1046.363892 
	C1774.182617,1048.199097 1783.767212,1055.586792 1790.292358,1066.762085 
	C1803.361328,1089.144409 1802.737427,1111.638428 1789.558228,1133.692383 
	C1786.715332,1138.449585 1782.322754,1142.280518 1778.677002,1146.499756 
	C1783.578247,1150.281616 1788.440063,1154.033203 1793.798584,1158.306396 
M1726.985962,1167.674438 
	C1719.077026,1167.674438 1711.168091,1167.674438 1702.811035,1167.674438 
	C1702.811035,1186.851929 1702.811035,1205.009644 1702.811035,1223.772217 
	C1720.038208,1223.772217 1736.914062,1224.110107 1753.765991,1223.620483 
	C1761.440552,1223.397339 1766.636719,1217.968262 1769.438843,1211.285522 
	C1773.580444,1201.409180 1773.632080,1191.208618 1768.812988,1181.360474 
	C1765.717651,1175.034912 1760.967773,1170.482178 1753.713135,1169.676758 
	C1745.489380,1168.763794 1737.213501,1168.321411 1726.985962,1167.674438 
M1766.299683,1105.037720 
	C1765.596802,1101.484985 1765.113037,1097.871338 1764.144531,1094.392578 
	C1762.243164,1087.563232 1756.867310,1083.104126 1750.591309,1082.759521 
	C1734.842041,1081.894897 1719.013672,1082.473877 1703.051147,1082.473877 
	C1703.051147,1098.473633 1703.051147,1114.156250 1703.051147,1130.306396 
	C1717.682617,1130.306396 1731.605103,1130.557251 1745.513306,1130.219482 
	C1755.016846,1129.988770 1761.541382,1124.594727 1764.463257,1115.424927 
	C1765.356812,1112.620850 1765.689575,1109.638062 1766.299683,1105.037720 
z"/>
<path fill="#190388" opacity="1.000000" stroke="none" 
	d="
M2278.689209,241.726379 
	C2267.305908,246.133835 2255.971680,250.674088 2244.528809,254.921265 
	C2220.010986,264.021393 2195.446289,272.994995 2170.875000,281.950043 
	C2167.784424,283.076385 2164.539307,283.779236 2160.621094,284.299316 
	C2165.999756,271.872345 2171.250977,259.277496 2178.399414,247.871857 
	C2208.120850,200.450134 2247.339844,162.976440 2297.709717,137.977570 
	C2331.870850,121.023178 2367.950928,110.728798 2406.171875,107.507980 
	C2457.061768,103.219582 2505.984375,110.370651 2553.019531,130.182053 
	C2561.556885,133.778046 2569.769287,138.145554 2578.766602,142.445999 
	C2575.744873,144.151093 2572.154053,145.775940 2568.421143,146.947586 
	C2551.107910,152.381638 2533.761230,157.709885 2516.407715,163.014175 
	C2514.539062,163.585327 2512.547607,163.754990 2509.354980,163.488495 
	C2500.361816,159.859970 2492.796387,156.271606 2484.860107,153.954926 
	C2459.049316,146.420502 2432.718506,144.547134 2406.076660,148.361160 
	C2385.187500,151.351639 2365.206055,157.260574 2347.020996,168.270691 
	C2329.231445,179.041107 2313.620605,192.513733 2300.804443,208.818054 
	C2293.075684,218.650192 2286.833008,229.650101 2279.922363,240.125214 
	C2279.922363,240.125214 2279.894043,239.922943 2279.657959,240.123444 
	C2278.944092,240.669418 2278.699951,241.136887 2278.689209,241.726379 
z"/>
<path fill="#22970D" opacity="1.000000" stroke="none" 
	d="
M1014.345337,1192.073730 
	C1014.345337,1215.682251 1014.345337,1238.304199 1014.345337,1261.639160 
	C1003.159546,1261.639160 992.366638,1261.639160 980.930725,1261.639160 
	C980.930725,1189.647705 980.930725,1117.569458 980.930725,1044.842529 
	C983.674805,1044.656250 986.235229,1044.336548 988.796265,1044.331543 
	C1009.780884,1044.290527 1030.772949,1043.982788 1051.747070,1044.454224 
	C1061.292603,1044.668701 1070.853638,1046.133423 1080.315918,1047.615723 
	C1092.377197,1049.505371 1101.043701,1056.843994 1106.552368,1067.252930 
	C1118.951294,1090.681396 1119.560547,1114.967651 1109.206421,1139.218872 
	C1103.862793,1151.734863 1093.970215,1159.941650 1080.948364,1164.222168 
	C1079.072144,1164.838745 1077.280640,1165.712769 1072.608765,1167.638794 
	C1077.158691,1171.004272 1081.439087,1172.901978 1083.826294,1176.179077 
	C1090.445557,1185.265381 1097.073608,1194.511841 1102.241211,1204.452393 
	C1111.121216,1221.533936 1118.907837,1239.184204 1127.111084,1256.615723 
	C1127.779175,1258.035522 1128.121826,1259.608276 1128.850342,1261.822754 
	C1115.249512,1261.822754 1102.421265,1261.822754 1088.806396,1261.822754 
	C1087.347412,1259.026367 1085.676392,1255.851929 1084.030640,1252.664307 
	C1073.356812,1231.990234 1062.840454,1211.232910 1051.971558,1190.661987 
	C1042.976562,1173.637329 1035.499023,1170.096924 1014.345276,1172.542114 
	C1014.345276,1178.617432 1014.345276,1184.852295 1014.345337,1192.073730 
M1080.307373,1116.003296 
	C1080.451782,1114.021118 1080.659912,1112.041260 1080.730835,1110.056396 
	C1081.488159,1088.873901 1068.996338,1081.033813 1054.167725,1082.168335 
	C1043.574341,1082.978882 1032.868774,1082.277832 1022.214050,1082.365723 
	C1019.700073,1082.386353 1017.190002,1082.867188 1014.885437,1083.114258 
	C1014.885437,1101.161621 1014.885437,1118.351318 1014.885437,1135.699219 
	C1029.022339,1135.699219 1042.598511,1135.582886 1056.171631,1135.733154 
	C1068.875610,1135.873657 1076.974731,1130.166626 1080.307373,1116.003296 
z"/>
<path fill="#22960C" opacity="1.000000" stroke="none" 
	d="
M1263.639893,1224.310303 
	C1266.853516,1224.430298 1269.106201,1224.550537 1271.834229,1224.696045 
	C1271.834229,1237.121704 1271.834229,1248.990356 1271.834229,1261.608887 
	C1230.557983,1261.608887 1189.121216,1261.608887 1146.998657,1261.608887 
	C1146.998657,1189.767700 1146.998657,1117.700684 1146.998657,1044.970947 
	C1187.500854,1044.970947 1227.934814,1044.970947 1269.034058,1044.970947 
	C1269.034058,1057.113892 1269.034058,1069.207153 1269.034058,1082.342285 
	C1239.666260,1082.342285 1210.545044,1082.342285 1180.896240,1082.342285 
	C1180.896240,1098.226562 1180.896240,1113.089478 1180.896240,1129.446411 
	C1194.182617,1129.870728 1207.683228,1129.590454 1221.166626,1129.640869 
	C1234.448242,1129.690430 1247.729980,1129.651611 1261.674927,1129.651611 
	C1261.674927,1141.894165 1261.674927,1153.637085 1261.674927,1166.140503 
	C1234.949097,1166.140503 1208.432617,1166.140503 1181.135010,1166.140503 
	C1181.135010,1185.626465 1181.135010,1204.361450 1181.135010,1224.310303 
	C1208.312622,1224.310303 1235.495972,1224.310303 1263.639893,1224.310303 
z"/>
<path fill="#22960C" opacity="1.000000" stroke="none" 
	d="
M2038.020508,1166.348389 
	C2028.037598,1166.348389 2019.049805,1166.348389 2010.192749,1166.348389 
	C2007.921509,1173.499390 2007.332031,1206.351929 2009.173828,1224.124756 
	C2039.132935,1224.124756 2069.243164,1224.124756 2099.837402,1224.124756 
	C2099.837402,1237.135376 2099.837402,1249.011597 2099.837402,1261.624023 
	C2058.503662,1261.624023 2017.044922,1261.624023 1974.949585,1261.624023 
	C1974.949585,1189.607788 1974.949585,1117.498535 1974.949585,1044.849121 
	C2015.771484,1044.849121 2056.227783,1044.849121 2097.185547,1044.849121 
	C2097.185547,1057.216431 2097.185547,1069.067139 2097.185547,1082.007812 
	C2067.961182,1082.007812 2038.836914,1082.007812 2009.037109,1082.007812 
	C2009.037109,1098.186279 2009.037109,1113.294556 2009.037109,1129.188232 
	C2035.740601,1129.188232 2062.274170,1129.188232 2089.573242,1129.188232 
	C2089.573242,1141.687988 2089.573242,1153.442139 2089.573242,1166.348389 
	C2072.773926,1166.348389 2055.894775,1166.348389 2038.020508,1166.348389 
z"/>
<path fill="#22960C" opacity="1.000000" stroke="none" 
	d="
M2569.910889,1087.809570 
	C2574.206543,1073.026978 2578.303711,1059.029541 2582.483398,1044.749756 
	C2594.471436,1044.749756 2606.032471,1044.749756 2618.426025,1044.749756 
	C2640.301270,1116.756104 2662.179932,1188.774048 2684.317627,1261.643799 
	C2671.568604,1261.643799 2659.531982,1261.643799 2647.156006,1261.643799 
	C2642.382324,1245.376221 2637.645264,1229.234131 2632.835693,1212.844482 
	C2611.246338,1212.844482 2590.364014,1212.844482 2568.458984,1212.844482 
	C2563.854248,1229.022095 2559.173096,1245.468994 2554.489258,1261.924805 
	C2542.177246,1261.924805 2530.630859,1261.924805 2518.289307,1261.924805 
	C2535.550537,1203.742554 2552.631348,1146.168701 2569.910889,1087.809570 
M2614.067871,1175.701172 
	C2616.504883,1175.415039 2618.941895,1175.128906 2621.857666,1174.786499 
	C2614.727783,1149.607300 2607.860840,1125.356079 2600.993652,1101.104736 
	C2592.457520,1125.549438 2585.222900,1149.988892 2578.921875,1175.701172 
	C2591.047363,1175.701172 2601.654297,1175.701172 2614.067871,1175.701172 
z"/>
<path fill="#22960C" opacity="1.000000" stroke="none" 
	d="
M1594.422852,1071.533203 
	C1608.330811,1117.419067 1622.092529,1162.513428 1635.847290,1207.609985 
	C1641.261597,1225.361084 1646.660400,1243.116821 1652.314087,1261.683960 
	C1639.816406,1261.683960 1628.028687,1261.683960 1615.273071,1261.683960 
	C1610.539185,1245.810425 1605.654419,1229.430542 1600.698486,1212.812012 
	C1579.174438,1212.812012 1558.282471,1212.812012 1536.314331,1212.812012 
	C1531.762817,1229.038330 1527.142700,1245.509277 1522.546143,1261.896484 
	C1510.149536,1261.896484 1498.613037,1261.896484 1486.373291,1261.896484 
	C1507.869507,1189.109619 1529.185181,1116.934448 1550.530640,1044.657959 
	C1562.605103,1044.657959 1573.885254,1044.657959 1586.256226,1044.657959 
	C1588.866821,1053.151123 1591.570312,1061.946899 1594.422852,1071.533203 
M1571.573853,1109.794312 
	C1570.692505,1106.885498 1569.811279,1103.976807 1568.929932,1101.067993 
	C1568.323853,1101.046387 1567.717896,1101.024780 1567.111816,1101.003174 
	C1560.345093,1125.612915 1553.578491,1150.222656 1546.768677,1174.988770 
	C1561.713135,1174.988770 1575.431641,1174.988770 1589.879639,1174.988770 
	C1583.740234,1153.196533 1577.841675,1132.259399 1571.573853,1109.794312 
z"/>
<path fill="#23970D" opacity="1.000000" stroke="none" 
	d="
M2467.651123,1112.000000 
	C2467.651123,1089.101074 2467.651123,1067.202148 2467.651123,1044.811646 
	C2479.127197,1044.811646 2489.654541,1044.811646 2501.086670,1044.811646 
	C2501.287109,1047.655518 2501.661133,1050.512207 2501.664062,1053.369263 
	C2501.705322,1092.006836 2502.446533,1130.665283 2501.370605,1169.272705 
	C2500.857422,1187.687622 2501.281982,1206.355347 2496.155518,1224.569946 
	C2489.880371,1246.864990 2472.050781,1264.865601 2442.610107,1265.598511 
	C2435.355713,1265.779297 2428.039062,1265.135498 2420.810303,1264.333740 
	C2397.766113,1261.776855 2383.798340,1247.997925 2375.879639,1227.128296 
	C2370.608398,1213.235229 2369.941406,1198.518555 2369.804443,1183.991211 
	C2369.383057,1139.362183 2369.649658,1094.726685 2369.677002,1050.093628 
	C2369.677979,1048.496460 2369.976562,1046.899414 2370.184082,1044.826416 
	C2381.087646,1044.826416 2391.615723,1044.826416 2403.309814,1044.826416 
	C2403.434570,1048.300049 2403.668701,1051.816284 2403.670898,1055.332642 
	C2403.696533,1097.634033 2403.686035,1139.935547 2403.688477,1182.236938 
	C2403.688965,1191.571777 2404.266846,1200.826416 2408.118164,1209.524414 
	C2413.018311,1220.590454 2421.855713,1226.576782 2433.619385,1227.516479 
	C2445.314209,1228.450684 2455.674561,1224.755493 2461.309814,1213.785034 
	C2464.096436,1208.359619 2465.720947,1201.873047 2466.090576,1195.759155 
	C2467.111816,1178.861694 2467.298096,1161.909668 2467.614014,1144.975342 
	C2467.812744,1134.320435 2467.651123,1123.658691 2467.651123,1112.000000 
z"/>
<path fill="#23970D" opacity="1.000000" stroke="none" 
	d="
M3075.144775,1144.880615 
	C3064.936035,1123.508423 3055.135010,1102.771606 3045.264160,1082.067993 
	C3040.114014,1071.265991 3034.822754,1060.531006 3029.643799,1049.742554 
	C3028.972656,1048.344360 3028.591553,1046.806885 3027.858887,1044.713623 
	C3041.207764,1044.713623 3053.745361,1044.713623 3067.392578,1044.713623 
	C3079.732910,1071.965820 3092.290283,1099.697144 3105.651611,1129.204102 
	C3118.554932,1100.151367 3130.878662,1072.404419 3143.240723,1044.570679 
	C3155.884521,1044.570679 3168.183105,1044.570679 3182.007812,1044.570679 
	C3180.572266,1048.190308 3179.498779,1051.436768 3178.037109,1054.498047 
	C3166.007080,1079.696777 3153.932861,1104.874634 3141.812500,1130.030273 
	C3136.038086,1142.014282 3129.912109,1153.835449 3124.420166,1165.945557 
	C3122.709961,1169.716431 3121.845703,1174.185547 3121.805176,1178.347046 
	C3121.566895,1202.672241 3121.687988,1227.001099 3121.687988,1251.328613 
	C3121.687988,1254.596191 3121.688232,1257.863770 3121.688232,1261.735596 
	C3110.142822,1261.735596 3099.375244,1261.735596 3087.650391,1261.735596 
	C3087.650391,1258.244263 3087.650635,1255.003906 3087.650635,1251.763550 
	C3087.650635,1229.435547 3087.285156,1207.098755 3087.812988,1184.783203 
	C3088.057617,1174.428711 3086.156738,1165.075073 3080.879639,1156.242676 
	C3078.837891,1152.824951 3077.293945,1149.109741 3075.144775,1144.880615 
z"/>
<path fill="#22970D" opacity="1.000000" stroke="none" 
	d="
M2975.685547,1239.950439 
	C2975.685547,1247.562256 2975.685547,1254.182007 2975.685547,1261.445312 
	C2964.475830,1263.448120 2953.666016,1261.689697 2941.864258,1262.567139 
	C2941.864258,1202.396362 2941.864258,1143.015137 2941.864258,1082.619141 
	C2925.046143,1082.619141 2909.244629,1082.619141 2892.879395,1082.619141 
	C2892.879395,1069.498047 2892.879395,1057.398682 2892.879395,1044.802002 
	C2936.496094,1044.802002 2979.638184,1044.802002 3024.209473,1044.802002 
	C3024.481689,1056.871216 3024.334717,1068.965088 3024.268555,1081.927979 
	C3008.335938,1081.927979 2992.850342,1081.927979 2978.462646,1081.927979 
	C2977.114014,1082.991699 2976.822266,1083.169922 2976.600586,1083.412109 
	C2976.391113,1083.640503 2976.108643,1083.936157 2976.107910,1084.203003 
	C2975.952637,1135.788086 2975.819580,1187.373169 2975.685547,1239.950439 
z"/>
<path fill="#22960C" opacity="1.000000" stroke="none" 
	d="
M2740.248047,1224.293579 
	C2766.481201,1224.306396 2791.735596,1224.306396 2817.664795,1224.306396 
	C2817.664795,1237.070557 2817.664795,1249.164551 2817.664795,1261.810181 
	C2779.430908,1261.810181 2741.272949,1261.810181 2702.383545,1261.810181 
	C2702.383545,1190.551270 2702.383545,1119.134277 2702.383545,1047.013916 
	C2712.906982,1047.013916 2723.678955,1047.013916 2735.683838,1047.013916 
	C2735.683838,1050.685059 2735.683838,1054.233521 2735.683838,1057.781982 
	C2735.683838,1110.403442 2735.638184,1163.024902 2735.803711,1215.645874 
	C2735.813232,1218.634644 2733.039795,1223.492676 2740.248047,1224.293579 
z"/>
<path fill="#23970D" opacity="1.000000" stroke="none" 
	d="
M1904.000000,1262.355469 
	C1881.030518,1262.355469 1859.061035,1262.355469 1836.373779,1262.355469 
	C1836.373779,1190.500732 1836.373779,1119.051147 1836.373779,1046.954834 
	C1847.029419,1046.954834 1857.807861,1046.954834 1869.335938,1046.954834 
	C1869.335938,1105.807251 1869.335938,1164.333130 1869.335938,1223.960693 
	C1896.824585,1223.960693 1923.605835,1223.960693 1951.026855,1223.960693 
	C1951.026855,1237.153564 1951.026855,1249.252930 1951.026855,1262.355469 
	C1935.483521,1262.355469 1920.241821,1262.355469 1904.000000,1262.355469 
z"/>
<path fill="#23970D" opacity="1.000000" stroke="none" 
	d="
M1344.000122,1262.355469 
	C1329.091919,1262.355469 1315.183594,1262.355469 1300.806763,1262.355469 
	C1300.806763,1190.183838 1300.806763,1119.003662 1300.806763,1046.515503 
	C1311.610962,1046.119629 1322.376099,1046.312134 1334.269165,1046.438110 
	C1334.269165,1105.877808 1334.269165,1164.639771 1334.269165,1224.174561 
	C1361.895020,1224.174561 1388.423950,1224.174561 1415.644165,1224.174561 
	C1415.644165,1237.041260 1415.644165,1249.135132 1415.644165,1262.355469 
	C1392.082275,1262.355469 1368.541138,1262.355469 1344.000122,1262.355469 
z"/>
<path fill="#23970D" opacity="1.000000" stroke="none" 
	d="
M1472.349365,1132.000000 
	C1472.349365,1175.615723 1472.349365,1218.231445 1472.349365,1261.601562 
	C1461.248535,1261.601562 1450.451294,1261.601562 1438.975830,1261.601562 
	C1438.975830,1189.727539 1438.975830,1117.651978 1438.975830,1044.940186 
	C1449.879272,1044.940186 1460.641113,1044.940186 1472.349365,1044.940186 
	C1472.349365,1073.877930 1472.349365,1102.438965 1472.349365,1132.000000 
z"/>
<path fill="#23970D" opacity="1.000000" stroke="none" 
	d="
M2873.686035,1088.000122 
	C2873.686035,1146.252563 2873.686035,1203.505127 2873.686035,1262.011597 
	C2862.478516,1262.672974 2851.704590,1262.299438 2840.285645,1262.239624 
	C2840.285645,1189.706787 2840.285645,1117.618408 2840.285645,1044.305786 
	C2845.839355,1044.305786 2851.390625,1044.305786 2856.941895,1044.305786 
	C2862.186523,1044.305786 2867.431152,1044.305786 2873.686035,1044.305786 
	C2873.686035,1059.213623 2873.686035,1073.106934 2873.686035,1088.000122 
z"/>
<path fill="#3B3888" opacity="1.000000" stroke="none" 
	d="
M1056.100830,692.724548 
	C1056.534424,692.019043 1056.931641,692.012451 1057.926392,692.036987 
	C1059.762451,695.607605 1061.001099,699.147095 1062.082520,703.420166 
	C1059.971680,700.576965 1058.018188,697.000183 1056.100830,692.724548 
z"/>
<path fill="#3B3888" opacity="1.000000" stroke="none" 
	d="
M1061.776489,704.421936 
	C1062.621216,704.135010 1062.885254,704.580750 1062.381714,705.485291 
	C1062.118164,705.651428 1061.700073,704.862000 1061.776489,704.421936 
z"/>
<path fill="#190388" opacity="1.000000" stroke="none" 
	d="
M2159.443359,283.895569 
	C2159.758789,284.426331 2159.583496,284.986603 2158.885986,285.645691 
	C2158.280518,285.047638 2158.476807,284.441162 2159.443359,283.895569 
z"/>
<path fill="#FEFEFE" opacity="1.000000" stroke="none" 
	d="
M2605.699219,284.788513 
	C2615.099365,307.497223 2619.670410,331.254852 2623.698242,355.152283 
	C2630.023193,392.680847 2630.972412,430.579193 2629.418701,468.404144 
	C2627.368896,518.302673 2620.385010,567.507507 2599.919922,613.764526 
	C2588.572510,639.413147 2574.917725,663.589417 2554.848389,683.764893 
	C2530.197998,708.545654 2501.053711,724.614380 2466.651855,730.847351 
	C2432.661133,737.005737 2399.218750,734.989746 2366.901611,722.260986 
	C2336.014648,710.095581 2311.821533,689.246704 2292.849121,662.333191 
	C2266.719238,625.266663 2251.972168,583.608948 2244.277832,539.210876 
	C2238.770508,507.430817 2236.167236,475.415314 2236.258789,442.162170 
	C2274.812500,424.172760 2313.223633,406.708130 2352.083496,390.306946 
	C2434.710449,355.433533 2517.570557,321.112091 2600.338867,286.573273 
	C2601.872559,285.933258 2603.452393,285.403595 2605.699219,284.788513 
z"/>
<path fill="#FEFEFE" opacity="1.000000" stroke="none" 
	d="
M1649.364136,492.075500 
	C1645.876099,466.094147 1645.041748,439.867310 1646.396606,413.626801 
	C1649.294556,357.501068 1658.832397,302.768616 1684.353760,252.048065 
	C1703.691162,213.617081 1731.555298,182.976822 1771.043457,164.283035 
	C1804.125366,148.621964 1838.943604,143.363266 1874.903809,150.536407 
	C1914.283447,158.391663 1942.729248,182.481125 1965.218872,214.609436 
	C1981.578979,237.981262 1992.650635,263.905640 2001.660156,290.743744 
	C2006.937256,306.463715 2011.247681,322.508301 2016.107910,339.179657 
	C1987.876465,351.356293 1959.407227,362.465088 1931.206665,374.219055 
	C1844.766479,410.247467 1758.429321,446.523499 1672.052002,482.702759 
	C1664.719360,485.774048 1657.385498,488.842163 1649.364136,492.075500 
z"/>
<path fill="#FEFEFE" opacity="1.000000" stroke="none" 
	d="
M1165.665039,502.806946 
	C1174.317139,476.806732 1183.193359,451.407593 1192.243286,426.070526 
	C1212.241943,370.080444 1232.335083,314.124115 1252.373413,258.148224 
	C1257.746216,243.139267 1262.932495,228.061661 1268.509888,213.129684 
	C1269.595459,210.223694 1269.625977,205.074478 1275.782837,206.961700 
	C1275.956299,209.108856 1276.302856,211.394516 1276.302856,213.680191 
	C1276.297852,359.328003 1276.264648,504.975830 1276.047119,651.586182 
	C1265.210938,638.582031 1254.362183,624.762390 1243.952393,610.619568 
	C1218.544434,576.100281 1193.337524,541.432922 1168.063965,506.814819 
	C1167.284668,505.747467 1166.663086,504.564941 1165.665039,502.806946 
z"/>
<path fill="#FBFCFC" opacity="1.000000" stroke="none" 
	d="
M2280.678223,240.462006 
	C2286.833008,229.650101 2293.075684,218.650192 2300.804443,208.818054 
	C2313.620605,192.513733 2329.231445,179.041107 2347.020996,168.270691 
	C2365.206055,157.260574 2385.187500,151.351639 2406.076660,148.361160 
	C2432.718506,144.547134 2459.049316,146.420502 2484.860107,153.954926 
	C2492.796387,156.271606 2500.361816,159.859970 2508.606934,163.442108 
	C2495.042725,168.742569 2480.961670,173.445251 2466.896240,178.195236 
	C2411.981201,196.740677 2357.072021,215.303055 2302.158691,233.853653 
	C2295.256104,236.185394 2288.342773,238.484528 2280.678223,240.462006 
z"/>
<path fill="#FBFCFC" opacity="1.000000" stroke="none" 
	d="
M2279.172852,241.544907 
	C2278.699951,241.136887 2278.944092,240.669418 2279.753906,240.089096 
	C2279.943115,240.357315 2279.800049,240.860382 2279.172852,241.544907 
z"/>
<path fill="#FEFEFF" opacity="1.000000" stroke="none" 
	d="
M302.244873,733.671509 
	C258.929749,732.683838 222.243515,718.199524 191.784332,688.332397 
	C160.491364,657.647583 142.012741,619.816956 129.844589,578.436035 
	C122.241844,552.580872 117.299072,526.199890 115.695396,499.266479 
	C114.433945,478.080566 112.235222,456.858398 112.582169,435.687256 
	C113.394592,386.112305 118.852623,336.998627 134.350067,289.607452 
	C146.359619,252.882278 163.771240,219.123672 192.391876,192.127289 
	C220.748291,165.380142 253.948303,150.444046 293.131042,147.373108 
	C317.413849,145.469925 340.888580,147.691757 363.787781,154.913589 
	C404.910278,167.882538 435.504120,194.503922 458.036560,230.764023 
	C477.586060,262.223846 488.716888,296.866791 496.123535,332.899414 
	C504.660400,374.430695 507.460968,416.453430 506.215820,458.710815 
	C504.852814,504.968079 499.572968,550.704651 483.890503,594.653870 
	C472.739532,625.903748 458.008301,655.320251 435.303558,679.802612 
	C408.204803,709.022949 374.736877,727.082336 334.913757,732.159912 
	C324.451111,733.493896 313.783813,733.222473 302.244873,733.671509 
z"/>
<path fill="#FCFEFC" opacity="1.000000" stroke="none" 
	d="
M2267.167725,1218.956055 
	C2269.984131,1221.290527 2272.208740,1223.173950 2274.618652,1225.214722 
	C2262.428955,1231.426758 2247.693604,1227.718384 2237.675049,1216.780884 
	C2226.549316,1204.634644 2222.211670,1189.650879 2220.589355,1174.019165 
	C2218.561035,1154.474976 2218.796875,1134.832764 2224.197266,1115.646973 
	C2226.944336,1105.888550 2231.475098,1097.003418 2238.756836,1089.877686 
	C2254.410400,1074.559326 2279.722168,1076.173218 2293.611816,1093.306519 
	C2301.783936,1103.387085 2305.687256,1115.303345 2307.667725,1127.942261 
	C2310.730225,1147.488403 2310.595703,1166.996460 2305.889404,1186.250610 
	C2304.099854,1193.572632 2301.021240,1200.579468 2298.390137,1208.131348 
	C2287.502686,1200.511230 2277.595459,1193.577026 2266.387939,1185.732910 
	C2262.529053,1195.566528 2259.333252,1203.710205 2255.949219,1212.333008 
	C2259.775879,1214.555542 2263.175781,1216.530273 2267.167725,1218.956055 
z"/>
<path fill="#FCFDFB" opacity="1.000000" stroke="none" 
	d="
M1727.973145,1167.674438 
	C1737.213501,1168.321411 1745.489380,1168.763794 1753.713135,1169.676758 
	C1760.967773,1170.482178 1765.717651,1175.034912 1768.812988,1181.360474 
	C1773.632080,1191.208618 1773.580444,1201.409180 1769.438843,1211.285522 
	C1766.636719,1217.968262 1761.440552,1223.397339 1753.765991,1223.620483 
	C1736.914062,1224.110107 1720.038208,1223.772217 1702.811035,1223.772217 
	C1702.811035,1205.009644 1702.811035,1186.851929 1702.811035,1167.674438 
	C1711.168091,1167.674438 1719.077026,1167.674438 1727.973145,1167.674438 
z"/>
<path fill="#FCFDFB" opacity="1.000000" stroke="none" 
	d="
M1766.289429,1105.887451 
	C1765.689575,1109.638062 1765.356812,1112.620850 1764.463257,1115.424927 
	C1761.541382,1124.594727 1755.016846,1129.988770 1745.513306,1130.219482 
	C1731.605103,1130.557251 1717.682617,1130.306396 1703.051147,1130.306396 
	C1703.051147,1114.156250 1703.051147,1098.473633 1703.051147,1082.473877 
	C1719.013672,1082.473877 1734.842041,1081.894897 1750.591309,1082.759521 
	C1756.867310,1083.104126 1762.243164,1087.563232 1764.144531,1094.392578 
	C1765.113037,1097.871338 1765.596802,1101.484985 1766.289429,1105.887451 
z"/>
<path fill="#FAFDFA" opacity="1.000000" stroke="none" 
	d="
M1080.210449,1116.864746 
	C1076.974731,1130.166626 1068.875610,1135.873657 1056.171631,1135.733154 
	C1042.598511,1135.582886 1029.022339,1135.699219 1014.885437,1135.699219 
	C1014.885437,1118.351318 1014.885437,1101.161621 1014.885437,1083.114258 
	C1017.190002,1082.867188 1019.700073,1082.386353 1022.214050,1082.365723 
	C1032.868774,1082.277832 1043.574341,1082.978882 1054.167725,1082.168335 
	C1068.996338,1081.033813 1081.488159,1088.873901 1080.730835,1110.056396 
	C1080.659912,1112.041260 1080.451782,1114.021118 1080.210449,1116.864746 
z"/>
<path fill="#F6FBF6" opacity="1.000000" stroke="none" 
	d="
M2613.164551,1175.701172 
	C2601.654297,1175.701172 2591.047363,1175.701172 2578.921875,1175.701172 
	C2585.222900,1149.988892 2592.457520,1125.549438 2600.993652,1101.104736 
	C2607.860840,1125.356079 2614.727783,1149.607300 2621.857666,1174.786499 
	C2618.941895,1175.128906 2616.504883,1175.415039 2613.164551,1175.701172 
z"/>
<path fill="#F6FBF5" opacity="1.000000" stroke="none" 
	d="
M1571.758545,1110.558350 
	C1577.841675,1132.259399 1583.740234,1153.196533 1589.879639,1174.988770 
	C1575.431641,1174.988770 1561.713135,1174.988770 1546.768677,1174.988770 
	C1553.578491,1150.222656 1560.345093,1125.612915 1567.111816,1101.003174 
	C1567.717896,1101.024780 1568.323853,1101.046387 1568.929932,1101.067993 
	C1569.811279,1103.976807 1570.692505,1106.885498 1571.758545,1110.558350 
z"/>
</svg>